<?xml version="1.0" standalone="no"?>
<!DOCTYPE svg PUBLIC "-//W3C//DTD SVG 20010904//EN"
 "http://www.w3.org/TR/2001/REC-SVG-20010904/DTD/svg10.dtd">
<svg version="1.0" xmlns="http://www.w3.org/2000/svg"
 width="172.000000pt" height="153.000000pt" viewBox="0 0 172.000000 153.000000"
 preserveAspectRatio="xMidYMid meet">

<g transform="translate(0.000000,153.000000) scale(0.100000,-0.100000)"
fill="#000000" stroke="none">
<path d="M975 1459 c3 -4 18 -9 34 -11 17 -2 28 -1 26 3 -3 4 -18 9 -34 11
-17 2 -28 1 -26 -3z"/>
<path d="M731 1395 c-35 -8 -66 -17 -70 -21 -3 -4 8 -3 24 1 17 4 71 13 120
20 72 10 80 13 40 13 -27 0 -79 -6 -114 -13z"/>
<path d="M984 1392 c3 -6 23 -13 43 -17 96 -17 241 -111 321 -208 39 -48 102
-162 102 -185 0 -7 4 -12 10 -12 14 0 -34 106 -77 168 -81 119 -229 220 -376
256 -17 4 -26 3 -23 -2z"/>
<path d="M525 1313 c-67 -45 -125 -95 -147 -127 -15 -21 -3 -14 38 25 32 30
80 70 107 88 40 27 55 41 44 41 -1 0 -20 -12 -42 -27z"/>
<path d="M1282 1324 c10 -10 20 -16 22 -13 3 3 -5 11 -17 18 -21 13 -21 12 -5
-5z"/>
<path d="M1380 1235 c19 -19 36 -35 39 -35 3 0 -10 16 -29 35 -19 19 -36 35
-39 35 -3 0 10 -16 29 -35z"/>
<path d="M1065 1210 c26 -11 35 -12 35 -2 0 4 -12 8 -27 9 -24 1 -25 1 -8 -7z"/>
<path d="M1022 1140 c0 -14 2 -19 5 -12 2 6 2 18 0 25 -3 6 -5 1 -5 -13z"/>
<path d="M1131 1144 c0 -11 3 -14 6 -6 3 7 2 16 -1 19 -3 4 -6 -2 -5 -13z"/>
<path d="M456 1111 c-7 -11 14 -20 32 -14 6 3 12 9 12 14 0 12 -37 12 -44 0z"/>
<path d="M523 1103 c9 -2 23 -2 30 0 6 3 -1 5 -18 5 -16 0 -22 -2 -12 -5z"/>
<path d="M1022 1058 c1 -27 5 -54 10 -60 11 -18 9 62 -2 87 -7 15 -9 8 -8 -27z"/>
<path d="M1060 1030 c0 -11 5 -20 10 -20 6 0 10 9 10 20 0 11 -4 20 -10 20 -5
0 -10 -9 -10 -20z"/>
<path d="M710 951 c17 -10 45 -14 80 -11 l25 2 -25 8 c-35 11 -99 12 -80 1z"/>
<path d="M853 947 c0 -8 6 -14 14 -14 9 0 10 4 2 14 -6 7 -12 13 -14 13 -1 0
-2 -6 -2 -13z"/>
<path d="M717 917 c-10 -26 8 -36 20 -11 9 19 8 24 -2 24 -7 0 -15 -6 -18 -13z"/>
<path d="M670 740 c0 -6 7 -10 15 -10 8 0 15 2 15 4 0 2 -7 6 -15 10 -8 3 -15
1 -15 -4z"/>
<path d="M117 433 c-4 -3 -7 -25 -7 -49 0 -39 2 -42 33 -47 17 -2 33 -4 34 -3
0 0 -4 25 -9 54 -8 38 -15 52 -28 52 -9 0 -20 -3 -23 -7z m18 -13 c3 -5 1 -10
-4 -10 -6 0 -11 5 -11 10 0 6 2 10 4 10 3 0 8 -4 11 -10z"/>
<path d="M196 432 c-3 -5 1 -9 9 -9 8 0 12 4 9 9 -3 4 -7 8 -9 8 -2 0 -6 -4
-9 -8z"/>
<path d="M325 430 c-2 -3 5 -6 15 -7 11 -1 22 2 24 5 3 4 -4 8 -15 8 -11 0
-22 -3 -24 -6z"/>
<path d="M483 427 c-3 -6 -1 -7 5 -3 5 3 12 1 14 -6 3 -8 6 -7 10 3 7 17 -19
22 -29 6z"/>
<path d="M545 415 c22 -35 27 -75 11 -75 -8 0 -18 5 -21 10 -9 14 -32 12 -38
-3 -3 -9 14 -12 72 -12 l76 0 3 33 c5 45 -10 60 -67 64 -46 3 -48 2 -36 -17z"/>
<path d="M729 427 c6 -8 9 -16 7 -18 -2 -2 -6 -20 -9 -39 l-5 -35 49 -1 49 -1
0 34 c0 18 -3 32 -7 32 -24 -4 -73 2 -72 9 3 19 -2 32 -12 32 -8 0 -9 -4 0
-13z"/>
<path d="M840 436 c0 -2 11 -6 25 -8 13 -3 22 -1 19 3 -5 9 -44 13 -44 5z"/>
<path d="M968 428 c5 -5 16 -8 23 -6 8 3 3 7 -10 11 -17 4 -21 3 -13 -5z"/>
<path d="M1030 430 c-9 -6 -10 -10 -3 -10 6 0 15 5 18 10 8 12 4 12 -15 0z"/>
<path d="M1180 430 c0 -5 5 -9 11 -7 12 2 42 -70 34 -83 -2 -3 17 -6 43 -6
l47 1 0 48 c0 26 -3 48 -7 48 -5 1 -14 2 -20 3 -7 1 -21 -6 -32 -17 -18 -18
-18 -18 -33 2 -15 22 -43 29 -43 11z m117 -22 c-3 -8 -6 -5 -6 6 -1 11 2 17 5
13 3 -3 4 -12 1 -19z"/>
<path d="M1530 430 c8 -5 20 -10 25 -10 6 0 3 5 -5 10 -8 5 -19 10 -25 10 -5
0 -3 -5 5 -10z"/>
<path d="M678 423 c6 -2 18 -2 25 0 6 3 1 5 -13 5 -14 0 -19 -2 -12 -5z"/>
<path d="M899 403 c-1 -10 -1 -22 0 -27 1 -5 -5 -16 -13 -25 -13 -15 -9 -16
45 -16 64 -1 66 3 37 63 -14 28 -67 32 -69 5z"/>
<path d="M1058 378 c-4 -45 3 -49 93 -46 46 2 54 4 43 15 -15 15 -34 17 -34 3
0 -5 -5 -10 -11 -10 -7 0 -8 11 -4 32 6 26 5 30 -9 25 -8 -3 -18 -2 -21 2 -2
5 -16 11 -29 13 -22 4 -25 1 -28 -34z"/>
<path d="M210 383 c0 -14 6 -23 15 -23 17 0 21 -16 5 -22 -6 -1 17 -3 49 -3
38 0 56 4 50 10 -5 5 -9 20 -9 35 0 24 -3 25 -55 25 -50 0 -55 -2 -55 -22z"/>
<path d="M400 378 c0 -15 -7 -31 -16 -36 -11 -6 1 -9 39 -11 52 -1 55 0 61 25
9 34 -6 49 -50 49 -30 0 -34 -3 -34 -27z"/>
<path d="M1393 397 c-3 -5 -6 -22 -7 -38 -2 -29 -2 -29 52 -28 38 1 50 5 43
12 -6 6 -11 23 -11 38 0 25 -3 27 -36 26 -20 -1 -38 -6 -41 -10z"/>
<path d="M1583 403 c-14 -3 -23 -12 -23 -23 0 -10 -9 -25 -20 -33 -19 -13 -18
-15 25 -15 l45 -1 0 39 c0 22 -1 39 -2 39 -2 -1 -13 -4 -25 -6z"/>
<path d="M350 380 c0 -11 5 -20 10 -20 6 0 10 9 10 20 0 11 -4 20 -10 20 -5 0
-10 -9 -10 -20z"/>
<path d="M692 380 c0 -14 2 -19 5 -12 2 6 2 18 0 25 -3 6 -5 1 -5 -13z"/>
<path d="M1010 383 c0 -13 5 -23 10 -23 13 0 13 11 0 30 -8 12 -10 11 -10 -7z"/>
<path d="M1511 374 c0 -11 3 -14 6 -6 3 7 2 16 -1 19 -3 4 -6 -2 -5 -13z"/>
<path d="M1336 342 c-2 -4 4 -8 14 -8 10 0 16 4 14 8 -3 4 -9 8 -14 8 -5 0
-11 -4 -14 -8z"/>
<path d="M477 269 c12 -15 73 -53 73 -46 0 2 -19 17 -42 32 -24 16 -38 22 -31
14z"/>
<path d="M1223 259 c-35 -22 -46 -37 -15 -20 22 13 58 40 52 41 -3 0 -20 -10
-37 -21z"/>
<path d="M420 236 c0 -2 8 -10 18 -17 15 -13 16 -12 3 4 -13 16 -21 21 -21 13z"/>
<path d="M1154 214 c-18 -14 -18 -15 4 -4 12 6 22 13 22 15 0 8 -5 6 -26 -11z"/>
<path d="M610 190 c8 -5 20 -10 25 -10 6 0 3 5 -5 10 -8 5 -19 10 -25 10 -5 0
-3 -5 5 -10z"/>
<path d="M718 153 c6 -2 18 -2 25 0 6 3 1 5 -13 5 -14 0 -19 -2 -12 -5z"/>
<path d="M988 153 c7 -3 16 -2 19 1 4 3 -2 6 -13 5 -11 0 -14 -3 -6 -6z"/>
<path d="M788 143 c12 -2 30 -2 40 0 9 3 -1 5 -23 4 -22 0 -30 -2 -17 -4z"/>
<path d="M913 143 c9 -2 25 -2 35 0 9 3 1 5 -18 5 -19 0 -27 -2 -17 -5z"/>
<path d="M628 113 c7 -3 16 -2 19 1 4 3 -2 6 -13 5 -11 0 -14 -3 -6 -6z"/>
<path d="M698 93 c6 -2 18 -2 25 0 6 3 1 5 -13 5 -14 0 -19 -2 -12 -5z"/>
<path d="M768 83 c6 -2 18 -2 25 0 6 3 1 5 -13 5 -14 0 -19 -2 -12 -5z"/>
</g>
</svg>
